<svg xmlns="http://www.w3.org/2000/svg" viewBox="0 0 328.65 125.85"><defs><style>.cls-1,.cls-3{fill:#2a2e30;}.cls-2{fill:#7fa644;}.cls-3{font-size:27px;font-family:CarterOne, Carter One;}.cls-4{letter-spacing:-0.01em;}.cls-5{letter-spacing:-0.01em;}.cls-6{fill:#181a1a;}</style></defs><title>carousell-rhino</title><g id="Capa_2" data-name="Capa 2"><g id="Capa_1-2" data-name="Capa 1"><g id="Rhino"><path class="cls-1" d="M160.94,33.78c.16-3.07.5-5,.58-7.94a.86.86,0,0,0-1.25-.79c-7.58,3.79-10.23,8.22-7.81,15.74a.86.86,0,0,0,1.43.36l6.8-6.8A.88.88,0,0,0,160.94,33.78Z" transform="translate(-0.45)"/><path class="cls-1" d="M201.37,55.45a.85.85,0,0,1-1.06-.88,38.7,38.7,0,0,0-1.77-13.1,52.54,52.54,0,0,0-8.34-16.29.86.86,0,0,0-1.53.7c2,9.17,4.57,18.85-.85,27.5a.86.86,0,0,1-1.58-.5,11.69,11.69,0,0,0-1.2-6.06.87.87,0,0,0-1.44-.12A7.36,7.36,0,0,1,180.9,49a.86.86,0,0,1-1.05-.24l-5.7-7.14a.86.86,0,0,1-.1-.92c1.43-2.86,2.82-5.67,4.33-8.69a.87.87,0,0,0-1-1.22,20,20,0,0,0-8.27,4.28.91.91,0,0,1-1,.13c-2.18-1-6.26.11-7.65,1.91l-6.76,7.19c-6.55,6.55-15.13,9.57-18.64,11.64a.85.85,0,0,1-1.27-.58c-1.76-8.77-.53-7.23,2.44-13.36A.86.86,0,0,0,135,41c-5,4.06-7.35,2.15-8.24,9.7-.24-.44.72,11.56,3,19.48a1,1,0,0,0,.11.23c2.69,4.27,6.5,9.94,6.53,10,5.94,8.3,13.61,15.06,22,21.14,4.79,3.46,4.89,3.5,9.59.12,2.2-1.58,5.65-4.27,8-6.12a2.22,2.22,0,0,0-.27-3.67c-.39-.23-.75-.42-1-.54-9.87-4.59-12.09-6.32-19.69-14.16-.8-.83-.65-5.85.94-4.48,9.2,7.87,15.92,10.72,27.38,14.09a3.26,3.26,0,0,0,2.76-1c1-1.18,1.92-2.36,2.87-3.56.47-.6.93-1.2,1.39-1.81,1.08-1.45,2.12-2.92,3.06-4.45A55.67,55.67,0,0,0,196,71a13.64,13.64,0,0,1,5.42-6c.19-.11.38-.19.57-.29a75.4,75.4,0,0,0,1.77-8.6.87.87,0,0,0-1-1C202.29,55.22,201.83,55.32,201.37,55.45ZM173.9,69.71c-1.69-.51-4-1.39-5-1.59-.66-.14-1.66-2.29-1.94-3.05a47.7,47.7,0,0,1-1.42-4.88.85.85,0,0,1,1.39-.85c2.84,2.48,6,5.11,8.68,7.52a.84.84,0,0,1,.28.63v.69A1.57,1.57,0,0,1,173.9,69.71Z" transform="translate(-0.45)"/></g><path id="barra" class="cls-2" d="M221.11,57c-8.52,0-13.52-.27-17.46,2.08-3,1.78-10.76,6.28-15.76.28s-12.59-16-17.46-21.69c-4.54-5.31-10.06-1-12.54,2.69-2,3-7.64,15.66-11.12,23a24.38,24.38,0,0,1-2,3.53,3.15,3.15,0,0,1-4.89.29,64.94,64.94,0,0,0-7-6.77c-1.47-1.1-6.15-3-8-3L57.68,57a4,4,0,0,0-4,4h0a4.56,4.56,0,0,0,4.57,4.55l62.31-.09a10,10,0,0,1,7.24,3.07,27.84,27.84,0,0,1,3.09,3.83c2,3,4.56,7.12,6,9,3.93,5.1,8.94,4.91,12.17-.66,4.83-8.34,5.83-16.34,12-24.25,3.35-4.27,9.2-4.13,12.55.12,3.93,5,8.33,11.51,13.64,14.8,1.6,1,5.6,1,9.3-.64,5.9-2.6,11.76-6.33,19.89-6.23,4.21.06,40.76.11,56,.13a3.4,3.4,0,0,0,3.4-3.46h0a3.4,3.4,0,0,0-3.36-3.35c-13.84-.17-42.5-.83-43-.83Z" transform="translate(-0.45)"/><text id="Texto" class="cls-3" transform="translate(65.43 23.26)">Rhinos <tspan class="cls-4" x="96.89" y="0">N</tspan><tspan x="114.87" y="0">atu</tspan><tspan class="cls-5" x="160.51" y="0">r</tspan><tspan x="172.2" y="0">al</tspan></text><g id="PesaDer"><path class="cls-6" d="M4.28,57a.29.29,0,0,1,.18-.08c.68,0,1.23,3.6,1.23,8.05s-.55,8-1.23,8A.23.23,0,0,1,4.29,73c-.6-.53-1.06-3.9-1.06-8S3.68,57.58,4.28,57Z" transform="translate(-0.45)"/><path class="cls-6" d="M4.29,73,1.57,73C.94,72.64.45,69.24.45,65.1c0-4.83.55-8,1.23-8v0L4.28,57c-.6.57-1.05,3.92-1.05,8S3.69,72.43,4.29,73Z" transform="translate(-0.45)"/><path class="cls-6" d="M24.56,21.65a1.43,1.43,0,0,1,1-.47c3.69,0,6.68,19.58,6.68,43.72s-3,43.72-6.68,43.72a1.35,1.35,0,0,1-.91-.4c-3.26-2.9-5.78-21.19-5.78-43.32S21.33,24.73,24.56,21.65Z" transform="translate(-0.45)"/><path class="cls-6" d="M24.63,108.22l-14.78.39c-3.39-2.1-6-20.58-6-43.08,0-26.22,3-43.29,6.68-43.29V22l14.08-.37c-3.23,3.08-5.71,21.27-5.71,43.25S21.37,105.32,24.63,108.22Z" transform="translate(-0.45)"/><path class="cls-6" d="M46,4.54a2,2,0,0,1,1.36-.65c5.15,0,9.32,27.3,9.32,61s-4.17,61-9.32,61a1.91,1.91,0,0,1-1.27-.56C41.52,121.24,38,95.74,38,64.87,38,34.21,41.47,8.84,46,4.54Z" transform="translate(-0.45)"/><path class="cls-6" d="M46.07,125.29l-20.63.54C20.72,122.9,17,97.11,17,65.73,17,29.17,21.2,5.37,26.34,5.37V5.06L46,4.54c-4.51,4.3-8,29.67-8,60.33C38,95.74,41.52,121.24,46.07,125.29Z" transform="translate(-0.45)"/></g><g id="PesaDer-2" data-name="PesaDer"><path class="cls-6" d="M325.27,56a.25.25,0,0,0-.17-.08c-.69,0-1.24,3.6-1.24,8s.55,8,1.24,8a.23.23,0,0,0,.16-.07c.6-.53,1.07-3.9,1.07-8S325.87,56.54,325.27,56Z" transform="translate(-0.45)"/><path class="cls-6" d="M325.26,71.92,328,72c.62-.39,1.11-3.79,1.11-7.93,0-4.83-.55-8-1.23-8v0l-2.6-.07c.6.57,1.06,3.92,1.06,8S325.86,71.39,325.26,71.92Z" transform="translate(-0.45)"/><path class="cls-6" d="M305,20.61a1.41,1.41,0,0,0-1-.47c-3.69,0-6.68,19.58-6.68,43.72s3,43.72,6.68,43.72a1.33,1.33,0,0,0,.91-.4c3.27-2.9,5.78-21.19,5.78-43.32S308.22,23.69,305,20.61Z" transform="translate(-0.45)"/><path class="cls-6" d="M304.92,107.18l14.79.39c3.38-2.1,6-20.58,6-43.08,0-26.22-3-43.29-6.68-43.29V21L305,20.61c3.23,3.08,5.71,21.27,5.71,43.25S308.19,104.28,304.92,107.18Z" transform="translate(-0.45)"/><path class="cls-6" d="M283.48,124.25c4.56-4,8.06-29.55,8.06-60.42,0-30.66-3.46-56-8-60.33a2,2,0,0,0-1.36-.65c-5.15,0-9.33,27.3-9.33,61s4.18,61,9.33,61A1.91,1.91,0,0,0,283.48,124.25Z" transform="translate(-0.45)"/><path class="cls-6" d="M283.48,124.25l20.63.54c4.73-2.93,8.43-28.72,8.43-60.1,0-36.56-4.19-60.36-9.33-60.36l0-.31L283.58,3.5c4.5,4.3,8,29.67,8,60.33C291.54,94.7,288,120.2,283.48,124.25Z" transform="translate(-0.45)"/></g></g></g></svg>