<svg xmlns="http://www.w3.org/2000/svg" viewBox="0 0 321.05 96.96"><defs><style>.cls-1,.cls-3{fill:#87bcf6;}.cls-2{fill:#252653;}.cls-3,.cls-6,.cls-8{fill-rule:evenodd;}.cls-4,.cls-6{fill:#ff7c00;}.cls-5{fill:#261300;}.cls-7,.cls-8{fill:#bc85f3;}</style></defs><title>knowledge</title><g id="Capa_2" data-name="Capa 2"><g id="Capa_1-2" data-name="Capa 1"><g id="Layer_1"><rect class="cls-1" y="0.23" width="97.09" height="96.5"/><rect class="cls-2" x="8.14" y="8.32" width="80.82" height="80.32"/><path class="cls-3" d="M72,38.17c-7.19-3.63-19.57-1.87-19.57,7.59,0,7.05,4.87,9.82,10.83,12.15,8.47,3.3.24,9.55-10.1,3.09,0,0-.37-.18-.55,0a.67.67,0,0,0-.18.55v6.79A20.23,20.23,0,0,0,62.9,71.09c13.46-.14,15.4-13,8.24-18A45.39,45.39,0,0,0,65.27,50c-5.69-2.17-5.21-5.25-3.4-6.81,2-1.72,7.52.89,9.85,2.34,1.41.87,1.65-.21,1.64-1.17l0-4.51C73.34,38.76,73,38.67,72,38.17Z"/><path class="cls-3" d="M30.43,49.44V32.91a.83.83,0,0,1,.36-.36c7-.36,11,1,11.34,8.49.41,8.58-6.78,8.76-11.7,8.76ZM22,26.49V70.91h8.45V56.6c10.37.74,19.74-3,19.74-15,0-4.84-1.51-9.7-5.08-12.65C40.1,24.86,28.45,25.77,22,26.49Z"/></g><g id="Layer_1-2" data-name="Layer_1"><rect class="cls-4" x="225.8" y="1.15" width="95.25" height="94.67"/><rect class="cls-5" x="233.78" y="9.08" width="79.28" height="78.8"/><g id="_1927324032" data-name=" 1927324032"><rect class="cls-4" x="289.31" y="39.07" width="8.22" height="31.58" rx="0.35"/><ellipse class="cls-4" cx="293.42" cy="30.72" rx="4.37" ry="4.18"/></g><path class="cls-6" d="M273.06,59.61l3.08,10.21c.16.6.48.75.9.74h7.9c.61,0,.65-.18.56-.58l-13-43.5a.2.2,0,0,0-.21-.14l-10.94,0c-.43,0-.44.22-.4.64a9,9,0,0,1-.26,3.55L249.1,70c-.12.38-.09.56.4.57H257c.79,0,.83-.24,1-.63l2.59-10.32Zm-1.6-7.94h-9l4.39-17.75Z"/></g><g id="Layer_1-3" data-name="Layer_1"><rect class="cls-7" x="113.89" width="97.16" height="96.96"/><rect class="cls-2" x="122.03" y="8.13" width="80.87" height="80.71"/><path class="cls-8" d="M153,59.61l3.38,11.24h9.51l-13.5-45.22a.2.2,0,0,0-.22-.14l-11.17,0c-.43,0-.44.23-.4.66a9.45,9.45,0,0,1-.26,3.64l-12,41.09h9l2.8-11.23Zm-1.62-8.14h-9.25l4.49-18.2Z"/><path class="cls-8" d="M176.93,56l17.44,0c1.1-1.42,1.3-4.07,1.27-5.81-.12-7.06-4.78-13.82-13.19-13.86-14.12-.08-16.8,17.85-12,28.2a12.09,12.09,0,0,0,8.12,6.3,19.55,19.55,0,0,0,5.1.68,19.85,19.85,0,0,0,9.78-2.44s.12,0,.12-.07v-6c0-.26-.21-.42-.51-.32-3.56,1.08-15.64,4.52-16.2-6.33C176.86,56.21,176.84,56,176.93,56Zm8.74-5.86h-8.88c0-4.74,2.21-7.43,5.55-7.44,3,0,5,2.11,5.07,7.33v.11Z"/></g></g></g></svg>